<?xml version="1.0" encoding="UTF-8"?>
<svg width="30px" height="30px" viewBox="0 0 30 30" version="1.1" xmlns="http://www.w3.org/2000/svg" xmlns:xlink="http://www.w3.org/1999/xlink">
    <!-- Generator: Sketch 52.2 (67145) - http://www.bohemiancoding.com/sketch -->
    <title>分组 7</title>
    <desc>Created with Sketch.</desc>
    <g id="Page-1" stroke="none" stroke-width="1" fill="none" fill-rule="evenodd">
        <g id="scratch终版-copy" transform="translate(-1016.000000, -70.000000)">
            <g id="分组-7" transform="translate(1016.000000, 70.000000)">
                <circle id="椭圆形" fill="#FFFFFF" cx="16" cy="16" r="10"></circle>
                <path d="M15,30 C6.7155,30 0,23.2845 0,15 C0,6.7155 6.7155,0 15,0 C23.2845,0 30,6.7155 30,15 C30,23.2845 23.2845,30 15,30 Z M12.933,9.6225 C12.7490639,9.4997796 12.512538,9.48817178 12.3174694,9.59229202 C12.1224007,9.69641226 12.0004089,9.89938322 12,10.1205 L12,19.8795 C12.0004089,20.1006168 12.1224007,20.3035877 12.3174694,20.407708 C12.512538,20.5118282 12.7490639,20.5002204 12.933,20.3775 L20.2515,15.4995 C20.418653,15.3882604 20.519085,15.2007844 20.519085,15 C20.519085,14.7992156 20.418653,14.6117396 20.2515,14.5005 L12.9315,9.6225 L12.933,9.6225 Z" id="形状" fill="#4DBC1F" fill-rule="nonzero"></path>
            </g>
        </g>
    </g>
</svg>